# Blender 4.2.1 LTS
# www.blender.org
mtllib model.mtl
o mesh0
v 0.363800 -0.775511 0.695545
v 0.363800 -0.775540 0.655545
v 0.363800 0.785460 0.654448
v 0.363800 0.785488 0.694448
vn 1.0000 -0.0000 -0.0000
s 0
usemtl 0.600000_0.352941_0.054902_0.000000_0.000000
f 1//1 2//1 3//1
f 3//1 4//1 1//1
o mesh1
v 0.363800 0.785460 0.654448
v 0.363800 0.785488 0.694448
v -0.366500 0.785460 0.654448
v -0.366500 0.785488 0.694448
vn -0.0000 1.0000 -0.0007
s 0
usemtl 0.600000_0.352941_0.054902_0.000000_0.000000
f 6//2 5//2 7//2
f 7//2 8//2 6//2
o mesh2
v -0.366500 0.785460 0.654448
v -0.366500 0.785488 0.694448
v -0.366500 -0.775540 0.655545
v -0.366500 -0.775511 0.695545
vn -1.0000 -0.0000 -0.0000
s 0
usemtl 0.600000_0.352941_0.054902_0.000000_0.000000
f 10//3 9//3 11//3
f 11//3 12//3 10//3
o mesh3
v 0.363800 -0.775511 0.695545
v 0.363800 -0.775540 0.655545
v -0.366500 -0.775540 0.655545
v -0.366500 -0.775511 0.695545
vn -0.0000 -1.0000 0.0007
s 0
usemtl 0.600000_0.352941_0.054902_0.000000_0.000000
f 16//4 15//4 14//4
f 14//4 13//4 16//4
o mesh4
v 0.363800 -0.775511 0.695545
v 0.363800 0.785488 0.694448
v -0.366500 0.785488 0.694448
v -0.366500 -0.775511 0.695545
vn -0.0000 0.0007 1.0000
s 0
usemtl 0.600000_0.352941_0.054902_0.000000_0.000000
f 20//5 17//5 18//5
f 18//5 19//5 20//5
o mesh5
v 0.363800 -0.775540 0.655545
v 0.363800 0.785460 0.654448
v -0.366500 0.785460 0.654448
v -0.366500 -0.775540 0.655545
vn -0.0000 -0.0007 -1.0000
s 0
usemtl 0.600000_0.352941_0.054902_0.000000_0.000000
f 23//6 22//6 21//6
f 21//6 24//6 23//6
o mesh6
v 0.263800 0.685485 0.689518
v 0.263800 0.685000 -0.000481
v 0.263800 0.760000 -0.000534
v 0.263800 0.760485 0.689466
vn 1.0000 -0.0000 -0.0000
s 0
usemtl 0.901961_0.901961_0.901961_0.000000_0.000000
f 25//7 26//7 27//7
f 27//7 28//7 25//7
o mesh7
v 0.263800 0.760000 -0.000534
v 0.263800 0.760485 0.689466
v 0.063800 0.760000 -0.000534
v 0.063800 0.760485 0.689466
vn -0.0000 1.0000 -0.0007
s 0
usemtl 0.901961_0.901961_0.901961_0.000000_0.000000
f 30//8 29//8 31//8
f 31//8 32//8 30//8
o mesh8
v 0.063800 0.760000 -0.000534
v 0.063800 0.760485 0.689466
v 0.063800 0.685000 -0.000481
v 0.063800 0.685485 0.689518
vn -1.0000 -0.0000 -0.0000
s 0
usemtl 0.901961_0.901961_0.901961_0.000000_0.000000
f 34//9 33//9 35//9
f 35//9 36//9 34//9
o mesh9
v 0.263800 0.685485 0.689518
v 0.263800 0.685000 -0.000481
v 0.063800 0.685000 -0.000481
v 0.063800 0.685485 0.689518
vn -0.0000 -1.0000 0.0007
s 0
usemtl 0.901961_0.901961_0.901961_0.000000_0.000000
f 40//10 39//10 38//10
f 38//10 37//10 40//10
o mesh10
v 0.263800 0.685485 0.689518
v 0.263800 0.760485 0.689466
v 0.063800 0.760485 0.689466
v 0.063800 0.685485 0.689518
vn -0.0000 0.0007 1.0000
s 0
usemtl 0.901961_0.901961_0.901961_0.000000_0.000000
f 44//11 41//11 42//11
f 42//11 43//11 44//11
o mesh11
v 0.263800 0.685000 -0.000481
v 0.263800 0.760000 -0.000534
v 0.063800 0.760000 -0.000534
v 0.063800 0.685000 -0.000481
vn -0.0000 -0.0007 -1.0000
s 0
usemtl 0.901961_0.901961_0.901961_0.000000_0.000000
f 47//12 46//12 45//12
f 45//12 48//12 47//12
o mesh12
v 0.363800 0.660035 0.049536
v 0.363800 0.660000 -0.000464
v 0.363800 0.785000 -0.000552
v 0.363800 0.785035 0.049448
vn 1.0000 -0.0000 -0.0000
s 0
usemtl 0.901961_0.901961_0.901961_0.000000_0.000000
f 49//13 50//13 51//13
f 51//13 52//13 49//13
o mesh13
v 0.363800 0.785000 -0.000552
v 0.363800 0.785035 0.049448
v -0.366500 0.785000 -0.000552
v -0.366500 0.785035 0.049448
vn -0.0000 1.0000 -0.0007
s 0
usemtl 0.901961_0.901961_0.901961_0.000000_0.000000
f 54//14 53//14 55//14
f 55//14 56//14 54//14
o mesh14
v -0.366500 0.785000 -0.000552
v -0.366500 0.785035 0.049448
v -0.366500 0.660000 -0.000464
v -0.366500 0.660035 0.049536
vn -1.0000 -0.0000 -0.0000
s 0
usemtl 0.901961_0.901961_0.901961_0.000000_0.000000
f 58//15 57//15 59//15
f 59//15 60//15 58//15
o mesh15
v 0.363800 0.660035 0.049536
v 0.363800 0.660000 -0.000464
v -0.366500 0.660000 -0.000464
v -0.366500 0.660035 0.049536
vn -0.0000 -1.0000 0.0007
s 0
usemtl 0.901961_0.901961_0.901961_0.000000_0.000000
f 64//16 63//16 62//16
f 62//16 61//16 64//16
o mesh16
v 0.363800 0.660035 0.049536
v 0.363800 0.785035 0.049448
v -0.366500 0.785035 0.049448
v -0.366500 0.660035 0.049536
vn -0.0000 0.0007 1.0000
s 0
usemtl 0.901961_0.901961_0.901961_0.000000_0.000000
f 68//17 65//17 66//17
f 66//17 67//17 68//17
o mesh17
v 0.363800 0.660000 -0.000464
v 0.363800 0.785000 -0.000552
v -0.366500 0.785000 -0.000552
v -0.366500 0.660000 -0.000464
vn -0.0000 -0.0007 -1.0000
s 0
usemtl 0.901961_0.901961_0.901961_0.000000_0.000000
f 71//18 70//18 69//18
f 69//18 72//18 71//18
o mesh18
v 0.063800 -0.750515 0.690528
v 0.063800 -0.751000 0.000528
v 0.263800 -0.751000 0.000528
v 0.263800 -0.750515 0.690528
vn -0.0000 -1.0000 0.0007
s 0
usemtl 0.901961_0.901961_0.901961_0.000000_0.000000
f 73//19 74//19 75//19
f 75//19 76//19 73//19
o mesh19
v 0.263800 -0.751000 0.000528
v 0.263800 -0.750515 0.690528
v 0.263800 -0.676000 0.000475
v 0.263800 -0.675515 0.690475
vn 1.0000 -0.0000 -0.0000
s 0
usemtl 0.901961_0.901961_0.901961_0.000000_0.000000
f 78//20 77//20 79//20
f 79//20 80//20 78//20
o mesh20
v 0.263800 -0.676000 0.000475
v 0.263800 -0.675515 0.690475
v 0.063800 -0.676000 0.000475
v 0.063800 -0.675515 0.690475
vn -0.0000 1.0000 -0.0007
s 0
usemtl 0.901961_0.901961_0.901961_0.000000_0.000000
f 82//21 81//21 83//21
f 83//21 84//21 82//21
o mesh21
v 0.063800 -0.750515 0.690528
v 0.063800 -0.751000 0.000528
v 0.063800 -0.676000 0.000475
v 0.063800 -0.675515 0.690475
vn -1.0000 -0.0000 -0.0000
s 0
usemtl 0.901961_0.901961_0.901961_0.000000_0.000000
f 88//22 87//22 86//22
f 86//22 85//22 88//22
o mesh22
v 0.063800 -0.750515 0.690528
v 0.263800 -0.750515 0.690528
v 0.263800 -0.675515 0.690475
v 0.063800 -0.675515 0.690475
vn -0.0000 0.0007 1.0000
s 0
usemtl 0.901961_0.901961_0.901961_0.000000_0.000000
f 90//23 91//23 92//23
f 92//23 89//23 90//23
o mesh23
v 0.063800 -0.751000 0.000528
v 0.263800 -0.751000 0.000528
v 0.263800 -0.676000 0.000475
v 0.063800 -0.676000 0.000475
vn -0.0000 -0.0007 -1.0000
s 0
usemtl 0.901961_0.901961_0.901961_0.000000_0.000000
f 94//24 93//24 96//24
f 96//24 95//24 94//24
o mesh24
v 0.363800 -0.775965 0.050545
v 0.363800 -0.776000 0.000545
v 0.363800 -0.651000 0.000458
v 0.363800 -0.650965 0.050457
vn 1.0000 -0.0000 -0.0000
s 0
usemtl 0.901961_0.901961_0.901961_0.000000_0.000000
f 97//25 98//25 99//25
f 99//25 100//25 97//25
o mesh25
v 0.363800 -0.651000 0.000458
v 0.363800 -0.650965 0.050457
v -0.366500 -0.651000 0.000458
v -0.366500 -0.650965 0.050457
vn -0.0000 1.0000 -0.0007
s 0
usemtl 0.901961_0.901961_0.901961_0.000000_0.000000
f 102//26 101//26 103//26
f 103//26 104//26 102//26
o mesh26
v -0.366500 -0.651000 0.000458
v -0.366500 -0.650965 0.050457
v -0.366500 -0.776000 0.000545
v -0.366500 -0.775965 0.050545
vn -1.0000 -0.0000 -0.0000
s 0
usemtl 0.901961_0.901961_0.901961_0.000000_0.000000
f 106//27 105//27 107//27
f 107//27 108//27 106//27
o mesh27
v 0.363800 -0.775965 0.050545
v 0.363800 -0.776000 0.000545
v -0.366500 -0.776000 0.000545
v -0.366500 -0.775965 0.050545
vn -0.0000 -1.0000 0.0007
s 0
usemtl 0.901961_0.901961_0.901961_0.000000_0.000000
f 112//28 111//28 110//28
f 110//28 109//28 112//28
o mesh28
v 0.363800 -0.775965 0.050545
v 0.363800 -0.650965 0.050457
v -0.366500 -0.650965 0.050457
v -0.366500 -0.775965 0.050545
vn -0.0000 0.0007 1.0000
s 0
usemtl 0.901961_0.901961_0.901961_0.000000_0.000000
f 116//29 113//29 114//29
f 114//29 115//29 116//29
o mesh29
v 0.363800 -0.776000 0.000545
v 0.363800 -0.651000 0.000458
v -0.366500 -0.651000 0.000458
v -0.366500 -0.776000 0.000545
vn -0.0000 -0.0007 -1.0000
s 0
usemtl 0.901961_0.901961_0.901961_0.000000_0.000000
f 119//30 118//30 117//30
f 117//30 120//30 119//30
